Patient4_TMGait_0pt2_01_right_14_GRF.mot
version=1
nRows=45
nColumns=19
inDegrees=no
endheader
time	F1x	F1y	F1z	M1x	M1y	M1z	F2x	F2y	F2z	M2x	M2y	M2z	EC1x	EC1y	EC1z	EC2x	EC2y	EC2z
30.8	-10.0877	865.8314	55.5575	-300.7294	-52.6713	768.2367	0.35085	19.5176	-3.6104	5.425	3.9071	17.5501	-0.0592	0.0182	-0.0073	-0.0462	0.0165	0.9585
30.8234	-9.5938	865.6351	56.4574	-299.0312	-52.4909	765.4419	-0.085233	13.8536	-2.5425	3.9047	2.8335	12.4333	-0.0592	0.0182	-0.0073	-0.0462	0.0165	0.9585
30.8467	-8.6585	861.1435	57.0701	-295.6607	-51.8894	758.4888	-0.30405	8.8383	-1.577	2.5474	1.8156	7.9122	-0.0592	0.0182	-0.0073	-0.0462	0.0165	0.9585
30.8701	-7.2527	851.6185	57.1614	-290.4945	-50.7015	746.8716	-0.37602	4.8852	-0.80487	1.4717	0.97227	4.3555	-0.0592	0.0182	-0.0073	-0.0462	0.0165	0.9585
30.8934	-5.4098	837.5693	56.6266	-283.8325	-48.8725	731.1365	-0.3576	2.0657	-0.24561	0.70119	0.3413	1.8201	-0.0592	0.0182	-0.0073	-0.0462	0.0165	0.9585
30.9168	-3.2159	820.5905	55.5158	-276.3239	-46.4804	712.717	-0.29008	0.25255	0.12208	0.20332	-0.087566	0.18831	-0.0592	0.0182	-0.0073	-0.0462	0.0165	0.9585
30.9401	-0.77849	802.8609	53.9725	-268.7935	-43.6803	693.5003	-0.20297	-0.77653	0.33934	-0.082472	-0.34948	-0.73766	-0.0592	0.0182	-0.0073	-0.0462	0.0165	0.9585
30.9635	1.8148	786.5074	52.1611	-262.0251	-40.6375	675.2818	-0.1153	-1.2689	0.44993	-0.22577	-0.48828	-1.1801	-0.0592	0.0182	-0.0073	-0.0462	0.0165	0.9585
30.9869	4.5243	773.1095	50.2289	-256.5932	-37.4857	659.368	-0.03753	-1.4591	0.49315	-0.2942	-0.54707	-1.3521	-0.0592	0.0182	-0.0073	-0.0462	0.0165	0.9585
31.0102	7.3404	763.4444	48.2944	-252.7732	-34.3235	646.3984	0.026398	-1.5497	0.50451	-0.34796	-0.56558	-1.4405	-0.0592	0.0182	-0.0073	-0.0462	0.0165	0.9585
31.0336	10.2507	757.4808	46.4646	-250.5333	-31.242	636.3653	0.076585	-1.7039	0.511	-0.43621	-0.5754	-1.5951	-0.0592	0.0182	-0.0073	-0.0462	0.0165	0.9585
31.0569	13.2231	754.5791	44.8489	-249.603	-28.3435	628.7939	0.11517	-2.0402	0.52814	-0.59532	-0.59671	-1.9224	-0.0592	0.0182	-0.0073	-0.0462	0.0165	0.9585
31.0803	16.1995	753.8548	43.5564	-249.603	-25.7408	623.051	0.14485	-2.6222	0.55762	-0.84331	-0.6345	-2.4745	-0.0592	0.0182	-0.0073	-0.0462	0.0165	0.9585
31.1036	19.1026	754.5259	42.6793	-250.1753	-23.5429	618.6282	0.16904	-3.4442	0.59	-1.1744	-0.68025	-3.2392	-0.0592	0.0182	-0.0073	-0.0462	0.0165	0.9585
31.127	21.8487	756.0417	42.2877	-251.0415	-21.8456	615.2183	0.1886	-4.4106	0.60977	-1.5526	-0.71424	-4.1224	-0.0592	0.0182	-0.0073	-0.0462	0.0165	0.9585
31.1504	24.3634	758.0338	42.427	-252.0008	-20.7216	612.628	0.20176	-5.3035	0.59401	-1.8993	-0.70615	-4.9228	-0.0592	0.0182	-0.0073	-0.0462	0.0165	0.9585
31.1737	26.615	760.22	43.0905	-252.9125	-20.1866	610.678	0.20137	-5.7513	0.50616	-2.0766	-0.61638	-5.304	-0.0592	0.0182	-0.0073	-0.0462	0.0165	0.9585
31.1971	28.6291	762.2557	44.2082	-253.648	-20.1835	609.0817	0.17195	-5.2005	0.29468	-1.8767	-0.39218	-4.7596	-0.0592	0.0182	-0.0073	-0.0462	0.0165	0.9585
31.2204	30.4432	763.6003	45.6588	-254.0366	-20.6044	607.3548	0.089645	-2.905	-0.098036	-1.019	0.028991	-2.6031	-0.0592	0.0182	-0.0073	-0.0462	0.0165	0.9585
31.2438	32.0499	763.514	47.2855	-253.8547	-21.3205	604.8458	-0.073783	2.0513	-0.73173	0.84156	0.71596	2.0065	-0.0592	0.0182	-0.0073	-0.0462	0.0165	0.9585
31.2671	33.3795	761.1241	48.9135	-252.837	-22.2024	600.8185	-0.34619	10.6645	-1.6549	4.0825	1.7265	9.983	-0.0592	0.0182	-0.0073	-0.0462	0.0165	0.9585
31.2905	34.3077	755.4549	50.3731	-250.6795	-23.1412	594.4927	-0.75322	23.8234	-2.8791	9.0421	3.0798	22.14	-0.0592	0.0182	-0.0073	-0.0462	0.0165	0.9585
31.3139	34.6988	745.5108	51.5115	-247.0664	-24.0458	585.1046	-1.3304	42.0029	-4.3496	15.9058	4.7316	38.8975	-0.0592	0.0182	-0.0073	-0.0462	0.0165	0.9585
31.3372	34.4693	730.4864	52.2079	-241.7418	-24.8336	572.0391	-2.1731	64.9299	-5.9672	24.5792	6.6165	59.9768	-0.0592	0.0182	-0.0073	-0.0462	0.0165	0.9585
31.3606	33.6306	710.0367	52.3872	-234.605	-25.4318	555.0136	-3.3934	91.4365	-7.7196	34.618	8.7555	84.2963	-0.0592	0.0182	-0.0073	-0.0462	0.0165	0.9585
31.3839	32.3143	684.5252	52.0297	-225.7984	-25.7756	534.2577	-4.9471	119.6996	-9.6223	45.3202	11.1361	110.1914	-0.0592	0.0182	-0.0073	-0.0462	0.0165	0.9585
31.4073	30.7505	655.0691	51.1712	-215.7209	-25.8124	510.5534	-6.6585	148.1254	-11.5986	56.0752	13.615	136.2046	-0.0592	0.0182	-0.0073	-0.0462	0.0165	0.9585
31.4306	29.1895	623.2677	49.8744	-204.9322	-25.5041	485.0532	-8.365	176.0405	-13.4937	66.6312	15.9917	161.7185	-0.0592	0.0182	-0.0073	-0.0462	0.0165	0.9585
31.454	27.7949	590.6819	48.1972	-193.9724	-24.8452	458.9176	-9.9626	203.569	-15.1465	77.0418	18.0911	186.8467	-0.0592	0.0182	-0.0073	-0.0462	0.0165	0.9585
31.4774	26.6021	558.4329	46.2005	-183.223	-23.8799	433.0128	-11.3963	231.1179	-16.468	87.4606	19.827	211.9528	-0.0592	0.0182	-0.0073	-0.0462	0.0165	0.9585
31.5007	25.5637	527.0917	43.9708	-172.8676	-22.6972	407.8059	-12.6412	258.9224	-17.5025	97.9644	21.2451	237.2356	-0.0592	0.0182	-0.0073	-0.0462	0.0165	0.9585
31.5241	24.6099	496.8116	41.6175	-162.941	-21.4055	383.4531	-13.696	286.8416	-18.4129	108.4807	22.51	262.5554	-0.0592	0.0182	-0.0073	-0.0462	0.0165	0.9585
31.5474	23.7035	467.558	39.2446	-153.4109	-20.096	359.9707	-14.5977	314.4655	-19.3634	118.8354	23.8007	287.5389	-0.0592	0.0182	-0.0073	-0.0462	0.0165	0.9585
31.5708	22.8604	439.287	36.9264	-144.2421	-18.8202	337.3625	-15.41	341.372	-20.4325	128.8559	25.2245	311.813	-0.0592	0.0182	-0.0073	-0.0462	0.0165	0.9585
31.5941	22.1479	412.0236	34.7006	-135.4251	-17.5828	315.6679	-16.2108	367.3041	-21.6279	138.439	26.8221	335.1635	-0.0592	0.0182	-0.0073	-0.0462	0.0165	0.9585
31.6175	21.6609	385.7972	32.5685	-126.9563	-16.3475	294.9194	-17.0776	392.1894	-22.9193	147.5536	28.5924	357.5486	-0.0592	0.0182	-0.0073	-0.0462	0.0165	0.9585
31.6409	21.4823	360.4576	30.4884	-118.7734	-15.0476	275.007	-18.0698	416.088	-24.2792	156.2156	30.5229	379.0427	-0.0592	0.0182	-0.0073	-0.0462	0.0165	0.9585
31.6642	21.6701	335.4687	28.381	-110.6883	-13.5966	255.5199	-19.2188	439.2027	-25.7284	164.4906	32.6223	399.8291	-0.0592	0.0182	-0.0073	-0.0462	0.0165	0.9585
31.6876	22.2493	309.8293	26.1433	-102.3617	-11.9036	235.6795	-20.5244	461.9581	-27.3387	172.5259	34.9209	420.263	-0.0592	0.0182	-0.0073	-0.0462	0.0165	0.9585
31.7109	23.1566	282.2808	23.6675	-93.3698	-9.9043	214.5111	-21.9552	485.0241	-29.1877	180.5656	37.4427	440.8874	-0.0592	0.0182	-0.0073	-0.0462	0.0165	0.9585
31.7343	24.1841	251.7873	20.8716	-83.3656	-7.6037	191.2209	-23.4569	509.2506	-31.328	188.9328	40.1878	462.3863	-0.0592	0.0182	-0.0073	-0.0462	0.0165	0.9585
31.7576	24.9708	218.0706	17.7493	-72.2589	-5.1136	165.5908	-24.955	535.4748	-33.7721	197.9607	43.1229	485.4166	-0.0592	0.0182	-0.0073	-0.0462	0.0165	0.9585
31.781	25.0655	181.9075	14.4095	-60.314	-2.6609	138.1927	-26.3558	564.2133	-36.4687	207.8768	46.1664	510.3497	-0.0592	0.0182	-0.0073	-0.0462	0.0165	0.9585
31.8044	24.0816	145.0254	11.0656	-48.1104	-0.53044	110.3014	-27.5477	595.3784	-39.2836	218.6941	49.1674	537.0417	-0.0592	0.0182	-0.0073	-0.0462	0.0165	0.9585
31.8277	21.8672	109.6043	7.9662	-36.377	1.0412	83.5223	-28.4135	628.1249	-42.0233	230.1447	51.9258	564.709	-0.0592	0.0182	-0.0073	-0.0462	0.0165	0.9585
